<svg width="120" height="34" viewBox="0 0 120 34" fill="none" xmlns="http://www.w3.org/2000/svg">
<path d="M1.88355 33.3595H1.02216V24.7675H1.88355V28.5955H6.51353V24.7675H7.36296V33.3595H6.51353V29.3995H1.88355V33.3595Z" fill="black"/>
<path d="M21.6367 29.0635C21.6367 31.6675 19.9498 33.5035 17.557 33.5035C15.1523 33.5035 13.4774 31.6675 13.4774 29.0635C13.4774 26.4595 15.1643 24.6115 17.557 24.6115C19.9618 24.6115 21.6367 26.4475 21.6367 29.0635ZM20.7514 29.0635C20.7514 26.9155 19.4473 25.4515 17.557 25.4515C15.6668 25.4515 14.3747 26.9155 14.3747 29.0635C14.3747 31.2115 15.6668 32.6755 17.557 32.6755C19.4473 32.6755 20.7514 31.1995 20.7514 29.0635Z" fill="black"/>
<path d="M27.685 30.3715V24.7675H28.5464V30.3355C28.5464 31.8475 29.3719 32.6635 30.8674 32.6635C32.327 32.6635 33.1525 31.8235 33.1525 30.3355V24.7675H34.0139V30.3715C34.0139 32.3155 32.8175 33.5035 30.8674 33.5035C28.8814 33.5035 27.685 32.3275 27.685 30.3715Z" fill="black"/>
<path d="M40.0718 26.9995C40.0718 25.5595 41.2204 24.6115 42.9432 24.6115C44.4865 24.6115 45.5034 25.4755 45.635 26.9155H44.7616C44.6659 25.9435 44.0079 25.3915 42.9312 25.3915C41.7228 25.3915 40.9332 26.0155 40.9332 26.9875C40.9332 27.7435 41.3759 28.2235 42.2732 28.4515L43.7447 28.8115C45.0847 29.1355 45.7786 29.9035 45.7786 31.0675C45.7786 32.5555 44.6301 33.5035 42.8594 33.5035C41.1964 33.5035 40.0718 32.6275 39.9642 31.2235H40.8495C40.8973 32.1235 41.687 32.7115 42.8594 32.7115C44.1156 32.7115 44.9172 32.0995 44.9172 31.1155C44.9172 30.3475 44.4865 29.8435 43.5653 29.6275L42.1177 29.2675C40.7777 28.9435 40.0718 28.1755 40.0718 26.9995Z" fill="black"/>
<path d="M57.0063 33.3595H51.8738V24.7675H56.9943V25.5595H52.7352V28.6555H56.5995V29.4355H52.7352V32.5675H57.0063V33.3595Z" fill="black"/>
<path d="M76.7856 33.3595L76.0199 32.4715C75.3499 33.1435 74.4168 33.5155 73.2922 33.5155C71.4856 33.5155 70.3132 32.5915 70.3132 31.1755C70.3132 30.0835 70.9592 29.2795 72.5026 28.4395C71.7249 27.5275 71.4139 27.0115 71.4139 26.3755C71.4139 25.3435 72.1915 24.6235 73.352 24.6235C74.4527 24.6235 75.2064 25.2955 75.2064 26.3035C75.2064 27.1555 74.7637 27.8155 73.6272 28.5835L75.9601 31.2835C76.1994 30.7795 76.331 30.1555 76.331 29.4355H77.1325C77.1325 30.3955 76.9052 31.2235 76.4865 31.8835L77.7666 33.3595H76.7856ZM73.1845 28.0675L73.1965 28.0795C74.0339 27.5515 74.4168 26.9995 74.4168 26.3275C74.4168 25.7035 74.01 25.3195 73.34 25.3195C72.6461 25.3195 72.2154 25.7275 72.2154 26.3755C72.2154 26.8075 72.4069 27.1675 73.1845 28.0675ZM71.1626 31.1275C71.1626 32.1715 71.9762 32.7955 73.34 32.7955C74.2852 32.7955 75.0269 32.4955 75.5414 31.9195L72.9333 28.9315C71.6412 29.6515 71.1626 30.2515 71.1626 31.1275Z" fill="black"/>
<path d="M94.3837 33.4915C91.9909 33.4915 90.3638 31.7035 90.3638 29.0635C90.3638 26.4235 92.0148 24.6235 94.4315 24.6235C96.2739 24.6235 97.7216 25.7395 98.0685 27.4435H97.1473C96.7884 26.2075 95.7356 25.4515 94.3956 25.4515C92.5173 25.4515 91.2611 26.8915 91.2611 29.0635C91.2611 31.2235 92.5173 32.6635 94.3956 32.6635C95.7475 32.6635 96.8243 31.9315 97.1952 30.7795H98.1164C97.7216 32.3995 96.2261 33.4915 94.3837 33.4915Z" fill="black"/>
<path d="M111.785 29.0635C111.785 31.6675 110.098 33.5035 107.706 33.5035C105.301 33.5035 103.626 31.6675 103.626 29.0635C103.626 26.4595 105.313 24.6115 107.706 24.6115C110.11 24.6115 111.785 26.4475 111.785 29.0635ZM110.9 29.0635C110.9 26.9155 109.596 25.4515 107.706 25.4515C105.815 25.4515 104.523 26.9155 104.523 29.0635C104.523 31.2115 105.815 32.6755 107.706 32.6755C109.596 32.6755 110.9 31.1995 110.9 29.0635Z" fill="black"/>
<path d="M117.882 33.4915C117.476 33.4915 117.129 33.1555 117.129 32.7595C117.129 32.3515 117.476 32.0035 117.882 32.0035C118.289 32.0035 118.636 32.3515 118.636 32.7595C118.636 33.1555 118.289 33.4915 117.882 33.4915Z" fill="black"/>
<path d="M11.438 0.601688V3.27356H3.07273V7.49231H11.0408V10.2697H3.03768V14.6642H11.6016V17.3595H0V0.601688H11.438Z" fill="black"/>
<path d="M14.1719 16.6564V13.8439C15.8466 14.4689 17.7393 14.7814 19.8501 14.7814C22.4126 14.7814 23.6939 13.922 23.6939 12.2033C23.6939 10.9533 22.9072 10.3283 21.3339 10.3283H18.7168C15.2974 10.3283 13.5878 8.76575 13.5878 5.64075C13.5878 2.20325 16.0218 0.484501 20.8899 0.484501C22.7592 0.484501 24.5312 0.757938 26.2058 1.30481V4.11731C24.5312 3.49231 22.7592 3.17981 20.8899 3.17981C18.0859 3.17981 16.6839 4.00013 16.6839 5.64075C16.6839 6.89075 17.3615 7.51575 18.7168 7.51575H21.3339C24.9713 7.51575 26.79 9.07825 26.79 12.2033C26.79 15.7189 24.4767 17.4767 19.8501 17.4767C17.7393 17.4767 15.8466 17.2033 14.1719 16.6564Z" fill="black"/>
<path d="M29.4188 17.3595V0.601688H36.8961C40.3077 0.601688 42.0134 2.17591 42.0134 5.32434C42.0134 8.73841 39.6807 10.8048 35.0151 11.5236L34.5711 8.75794C37.3751 8.25013 38.7771 7.13684 38.7771 5.41809C38.7771 4.02747 38.0839 3.33216 36.6975 3.33216H32.5148V17.3595H29.4188Z" fill="black"/>
<path d="M44.0697 17.3361V0.601688H51.6639C55.0755 0.601688 56.7812 2.09778 56.7812 5.08997C56.7812 7.11341 55.4532 8.78919 52.7972 10.1173L58.0898 17.3595H54.1875L49.1052 10.0587V8.64075C52.065 8.13294 53.5449 6.98059 53.5449 5.18372C53.5449 3.94934 52.8517 3.33216 51.4653 3.33216H47.2242V17.3361H44.0697Z" fill="black"/>
<path d="M70.9999 0.601688V3.27356H62.6346V7.49231H70.6027V10.2697H62.5996V14.6642H71.1635V17.3595H59.5619V0.601688H70.9999Z" fill="black"/>
<path d="M73.7338 16.6564V13.8439C75.4084 14.4689 77.3011 14.7814 79.4119 14.7814C81.9745 14.7814 83.2558 13.922 83.2558 12.2033C83.2558 10.9533 82.4691 10.3283 80.8957 10.3283H78.2786C74.8593 10.3283 73.1496 8.76575 73.1496 5.64075C73.1496 2.20325 75.5837 0.484501 80.4518 0.484501C82.3211 0.484501 84.0931 0.757938 85.7677 1.30481V4.11731C84.0931 3.49231 82.3211 3.17981 80.4518 3.17981C77.6477 3.17981 76.2457 4.00013 76.2457 5.64075C76.2457 6.89075 76.9234 7.51575 78.2786 7.51575H80.8957C84.5331 7.51575 86.3519 9.07825 86.3519 12.2033C86.3519 15.7189 84.0386 17.4767 79.4119 17.4767C77.3011 17.4767 75.4084 17.2033 73.7338 16.6564Z" fill="black"/>
<path d="M88.6885 16.6564V13.8439C90.3632 14.4689 92.2559 14.7814 94.3667 14.7814C96.9292 14.7814 98.2105 13.922 98.2105 12.2033C98.2105 10.9533 97.4238 10.3283 95.8505 10.3283H93.2334C89.814 10.3283 88.1044 8.76575 88.1044 5.64075C88.1044 2.20325 90.5384 0.484501 95.4065 0.484501C97.2758 0.484501 99.0478 0.757938 100.722 1.30481V4.11731C99.0478 3.49231 97.2758 3.17981 95.4065 3.17981C92.6025 3.17981 91.2005 4.00013 91.2005 5.64075C91.2005 6.89075 91.8781 7.51575 93.2334 7.51575H95.8505C99.4879 7.51575 101.307 9.07825 101.307 12.2033C101.307 15.7189 98.9933 17.4767 94.3667 17.4767C92.2559 17.4767 90.3632 17.2033 88.6885 16.6564Z" fill="black"/>
<path d="M106.564 8.93372C106.564 12.8322 108.289 14.7814 111.74 14.7814C115.105 14.7814 116.787 12.8322 116.787 8.93372C116.787 5.09778 115.105 3.17981 111.74 3.17981C108.289 3.17981 106.564 5.09778 106.564 8.93372ZM103.351 9.00403C103.351 3.32434 106.147 0.484501 111.74 0.484501C117.247 0.484501 120 3.32434 120 9.00403C120 14.6525 117.247 17.4767 111.74 17.4767C106.397 17.4767 103.6 14.6525 103.351 9.00403Z" fill="black"/>
</svg>
